<svg id="f1232215-a08f-45a1-bdf8-1ac9ad6046eb" data-name="Capa 1" xmlns="http://www.w3.org/2000/svg" viewBox="0 0 512 512"><defs><style>.bce85914-dcc3-4811-a123-35259d299cc9{fill:#91dc5a;}</style></defs><title>check-square</title><path class="bce85914-dcc3-4811-a123-35259d299cc9" d="M424.48,167.31a12.32,12.32,0,0,0-12.32,12.32V487.37H24.63V99.83H326a12.32,12.32,0,1,0,0-24.63H12.32A12.32,12.32,0,0,0,0,87.52V499.68A12.32,12.32,0,0,0,12.32,512H424.48a12.32,12.32,0,0,0,12.32-12.32V179.62A12.32,12.32,0,0,0,424.48,167.31Z" transform="translate(0 0)"/><path class="bce85914-dcc3-4811-a123-35259d299cc9" d="M508.39,3.61a12.31,12.31,0,0,0-17.42,0l-325.9,325.9L84.21,248.65a12.32,12.32,0,1,0-17.42,17.42l89.57,89.57a12.31,12.31,0,0,0,17.42,0L508.39,21A12.31,12.31,0,0,0,508.39,3.61Z" transform="translate(0 0)"/></svg>