<svg id="0ada55d0-c5bb-47dc-9112-7c111fc5a19e" data-name="Capa 1" xmlns="http://www.w3.org/2000/svg" viewBox="0 0 512 512"><defs><style>.\36 cea9a67-1118-4d68-b7a6-2d802480af69{fill:#d80027;}</style></defs><title>close</title><path class="6cea9a67-1118-4d68-b7a6-2d802480af69" d="M256,0C114.84,0,0,114.84,0,256S114.84,512,256,512a254.77,254.77,0,0,0,177.4-71.43,10.42,10.42,0,0,0-14.44-15,234,234,0,0,1-163,65.62C126.33,491.16,20.84,385.67,20.84,256S126.33,20.84,256,20.84,491.16,126.33,491.16,256a234.15,234.15,0,0,1-15.75,84.8,10.42,10.42,0,1,0,19.44,7.52A254.93,254.93,0,0,0,512,256C512,114.84,397.16,0,256,0Z"/><path class="6cea9a67-1118-4d68-b7a6-2d802480af69" d="M291.07,278.08A10.42,10.42,0,0,0,276.5,293l82,80.29a10.42,10.42,0,0,0,14.58-14.89Z"/><path class="6cea9a67-1118-4d68-b7a6-2d802480af69" d="M217.37,232.11a10.42,10.42,0,0,0,14.74-14.73l-78.55-78.55a10.42,10.42,0,1,0-14.73,14.73Z"/><path class="6cea9a67-1118-4d68-b7a6-2d802480af69" d="M373.18,138.82a10.42,10.42,0,0,0-14.73,0L138.82,358.44a10.42,10.42,0,0,0,14.74,14.73L373.18,153.56A10.42,10.42,0,0,0,373.18,138.82Z"/></svg>