<svg xmlns="http://www.w3.org/2000/svg" id="b061e068-561b-4315-901d-1ad9a8f71a71" data-name="Capa 1" viewBox="0 0 483.3 367.8">
  <defs>
    <style>
      .b461b798-33cf-4dc4-b447-3ab007c09307{fill:#ccc;}
    </style>
  </defs>
  <path d="M424.3 0H59.1A59.15 59.15 0 0 0 0 59.1v249.6a59.15 59.15 0 0 0 59.1 59.1h365.1a59.15 59.15 0 0 0 59.1-59.1V59.25A59.1 59.1 0 0 0 424.3 0zm32.1 308.7a32.14 32.14 0 0 1-32.1 32.1H59.1A32.14 32.14 0 0 1 27 308.7V59.25a32.14 32.14 0 0 1 32.1-32.1h365.1a32.14 32.14 0 0 1 32.1 32.1v249.5h.1z" class="b461b798-33cf-4dc4-b447-3ab007c09307"/>
  <path d="M304.8 180.8L423 74.8a13.52 13.52 0 1 0-18.1-20.1L241.9 201l-31.8-28.4a.53.53 0 0 1-.2-.3 20 20 0 0 0-2.2-1.9L78.3 54.6a13.53 13.53 0 0 0-18 20.2l119.6 106.9L60.8 293.25a13.55 13.55 0 0 0-.6 19.1 13.8 13.8 0 0 0 9.9 4.3 13.53 13.53 0 0 0 9.2-3.6l120.9-113.1 32.8 29.3a13.46 13.46 0 0 0 18-.1l33.7-30.2 120.2 114.2a13.54 13.54 0 0 0 19.1-.5 13.55 13.55 0 0 0-.5-19.1z" class="b461b798-33cf-4dc4-b447-3ab007c09307"/>
</svg>
