<svg xmlns="http://www.w3.org/2000/svg" id="675b197c-886e-4e5e-9916-d9e35cf9a231" data-name="Layer 1" viewBox="0 0 512 512">
  <defs>
    <style>
      .\36 af4919b-1fd3-426c-a80b-e217129a9f3d{fill:#fff;}
    </style>
  </defs>
  <path d="M256 0a256 256 0 1 0 256 256A255.5 255.5 0 0 0 256 0zm0 433.23A177.23 177.23 0 1 1 433.23 256 176.5 176.5 0 0 1 256 433.23z" class="6af4919b-1fd3-426c-a80b-e217129a9f3d"/>
  <path d="M346.58 240.25l-118.15-78.77c-3.94-2-5.9-3.94-11.82-3.94-11.8 0-19.67 7.88-19.67 19.7v157.53c0 11.82 7.88 19.7 19.7 19.7 3.93 0 7.87-2 11.8-3.95l118.16-78.77c5.9-3.94 7.87-9.85 7.87-15.75s-3.94-13.78-7.88-15.75z" class="6af4919b-1fd3-426c-a80b-e217129a9f3d"/>
</svg>
