<svg xmlns="http://www.w3.org/2000/svg" id="92e9c454-73ab-41a0-91df-7326514994b0" data-name="Capa 1" viewBox="0 0 451.49 481.76">
  <defs>
    <style>
      .b099454a-de94-4d93-bad2-3c61b707f74b{fill:#ccc;}
    </style>
  </defs>
  <path d="M438.44 405.7L283.2 250.47a43.5 43.5 0 0 0-4.62-4l27.5-29a55.54 55.54 0 0 0 4-4.44A102.33 102.33 0 0 0 448.3 108.57a8.83 8.83 0 0 0-15-5.5l-49.76 49.75-50.38-12.7-14.3-51.96L368.6 38.4a8.83 8.83 0 0 0-5.5-15.05 102.33 102.33 0 0 0-104.56 138.2c-1.5 1.27-3 2.62-4.45 4l-40.5 38.88-74.3-74.3a27.33 27.33 0 0 0-3-2.53c.82-1.53 1.7-3.1 2.5-4.74 15.7 3 44.4-27.54 68.72-51.9l-71-71c-31.77 31.8-54.9 53.1-51.9 68.8a69.35 69.35 0 0 0-18.3 12.48l-10 10a42.2 42.2 0 0 0-11.8 23c-1 1.1-2 2.28-2.96 3.52l-3.73 4.68c-.1.1-.4.58-.5.7l-3.4 4.72c-2.1 2.82-4 5.88-5.74 8.84l-2 3.3-.3.55-1.5 2.83c-1.8 3.4-3.7 6.92-5.3 10.8l-.27.62A117.4 117.4 0 0 0 13.6 169l-.67 2.14c-.54 1.76-1.1 3.52-1.6 5.62L10 183.6a78.3 78.3 0 0 0-1.68 12.2l-.2 2.46A60.83 60.83 0 0 0 7.86 209c0 1.08.1 2.14.12 3.56 0 .6 0 1.17.06 1.74a34.67 34.67 0 0 0 .35 4.8l.8 5.53c.2 1.07.3 2.1.5 3.1a46.85 46.85 0 0 0 1.3 6.8l3.6 12.6A8.5 8.5 0 0 0 31.3 246l1.87-12.8a35 35 0 0 1 1-4.1c.3-1.08.62-2.2.87-3.15l1.34-4.78a13.33 13.33 0 0 1 .77-1.92c.27-.6.53-1.22.77-1.83.45-1 .87-2 1.3-3.08a35.4 35.4 0 0 1 2.8-5.86c.5-.87 1-1.74 1.48-2.62a43.55 43.55 0 0 1 3.82-6.06c.1-.1.17-.22.26-.34l3.16-4.36c.65-.82 1.37-1.6 2.08-2.37.5-.55 1-1.1 1.64-1.83a63 63 0 0 1 6.17-6.12l1.13-1c1.57-1.45 3.38-2.82 5.28-4.27l2.3-1.7c1-.6 1.88-1.2 2.8-1.8a49.4 49.4 0 0 1 4.93-3.03l3.76-2.2 3.8-1.85c1.3-.7 2.6-1.2 3.8-1.7l2.08-.86c.7-.23 1.3-.5 1.9-.7a25 25 0 0 1 2.5-.83l1-.22a27.76 27.76 0 0 0 4 5.1l73.5 73.5L16.5 393.9l-.2.2c-19.5 19.53-22.7 48.13-3.12 67.67s46.32 14.57 65.84-5l.23-.2 138.46-145.8c.8 1 1.6 1.9 2.5 2.8l155.28 155.2a44.55 44.55 0 0 0 63-63zm-379.7 34.86a18.42 18.42 0 1 1 0-26 18.4 18.4 0 0 1 0 26z" class="b099454a-de94-4d93-bad2-3c61b707f74b"/>
</svg>
