<svg xmlns="http://www.w3.org/2000/svg" id="0c1f5263-a07d-4632-bde0-cef4df5d62d2" data-name="Capa 1" viewBox="0 0 612 535.5">
  <defs>
    <style>
      .ac8378c6-a46c-4805-8546-8e8d6f6d175c{fill:#ccc;}
    </style>
  </defs>
  <path id="278aea18-a5cb-4c48-9c9c-3e692dd63b15" d="M573.75 229.5L459 306a76 76 0 0 0-26.9-57.8c38.9-23.45 65.15-65.63 65.15-114.32a133.88 133.88 0 1 0-227.38 95.63h-70.15c18.32-20.3 29.78-47 29.78-76.5A114.75 114.75 0 1 0 0 153c0 34.6 15.63 65.23 39.82 86.26C16.2 252.28 0 277.12 0 306v153a76.5 76.5 0 0 0 76.5 76.5h306A76.5 76.5 0 0 0 459 459l114.75 76.5A38.24 38.24 0 0 0 612 497.25v-229.5a38.24 38.24 0 0 0-38.25-38.25zm-459 0a76.5 76.5 0 1 1 76.5-76.5 76.5 76.5 0 0 1-76.5 76.5zm248.63.25a95.83 95.83 0 1 1 95.83-95.83 95.84 95.84 0 0 1-95.8 95.83z" class="ac8378c6-a46c-4805-8546-8e8d6f6d175c" data-name="3"/>
</svg>
