<svg xmlns="http://www.w3.org/2000/svg" id="eae21083-4287-4ccc-84a8-a23b0109e6af" data-name="Capa 1" viewBox="0 0 512 511.99">
  <defs>
    <style>
      .f7a5dc8d-0ef2-4635-bd77-dcf9c4e00370{fill:#fff;}
    </style>
  </defs>
  <path d="M500.62 444.93L395.08 339.4q38.15-55.08 38.16-122.78a212.78 212.78 0 0 0-17.08-84.15Q399.08 92.3 370 63.24t-69.22-46.16a215.9 215.9 0 0 0-168.3 0Q92.3 34.16 63.22 63.24t-46.15 69.23a215.88 215.88 0 0 0 0 168.3Q34.15 340.94 63.23 370t69.23 46.15a212.87 212.87 0 0 0 84.15 17.08q67.7 0 122.8-38.16L444.93 500.3Q456 512 472.62 512a39.38 39.38 0 0 0 28-67.07zM314 314q-40.46 40.47-97.4 40.47T119.25 314Q78.8 273.54 78.8 216.62t40.45-97.38q40.46-40.47 97.38-40.46T314 119.24q40.47 40.46 40.47 97.38T314 314z" class="f7a5dc8d-0ef2-4635-bd77-dcf9c4e00370"/>
  <path d="M305.24 196.93h-68.92V128a10 10 0 0 0-9.84-9.85h-19.7a10 10 0 0 0-9.84 9.85v68.92H128a10 10 0 0 0-9.84 9.85v19.7a10 10 0 0 0 9.84 9.84h68.92v68.95a10 10 0 0 0 9.84 9.84h19.7a10 10 0 0 0 9.83-9.85V236.3h68.9a10 10 0 0 0 9.83-9.84v-19.7a10 10 0 0 0-9.8-9.83z" class="f7a5dc8d-0ef2-4635-bd77-dcf9c4e00370"/>
</svg>
